<?xml version="1.0" standalone="no"?>
<!DOCTYPE svg PUBLIC "-//W3C//DTD SVG 20010904//EN"
 "http://www.w3.org/TR/2001/REC-SVG-20010904/DTD/svg10.dtd">
<svg version="1.0" xmlns="http://www.w3.org/2000/svg"
 width="700.000000pt" height="700.000000pt" viewBox="0 0 700.000000 700.000000"
 preserveAspectRatio="xMidYMid meet">
<metadata>
Created by potrace 1.11, written by Peter Selinger 2001-2013
</metadata>
<g transform="translate(0.000000,700.000000) scale(0.100000,-0.100000)"
fill="#000000" stroke="none">
<path d="M0 3500 l0 -3500 3500 0 3500 0 0 3500 0 3500 -3500 0 -3500 0 0
-3500z m605 1590 c259 -12 405 -25 560 -51 66 -11 163 -27 215 -36 391 -63
916 -389 1246 -776 257 -300 352 -516 514 -1167 97 -388 136 -518 174 -575 38
-57 174 -210 186 -210 11 0 144 149 179 200 45 65 77 170 181 585 106 426 166
610 255 785 191 375 531 710 970 956 215 120 340 168 520 199 61 10 151 26
200 35 151 27 347 44 633 56 245 11 276 10 315 -5 82 -31 118 -127 75 -200
-39 -66 -66 -74 -289 -82 l-197 -7 87 -86 c248 -247 377 -586 342 -899 -27
-238 -123 -435 -301 -613 -335 -338 -877 -453 -1350 -287 -343 120 -602 372
-711 691 l-37 108 -27 -58 c-48 -104 -122 -343 -195 -633 -93 -372 -145 -551
-181 -627 -32 -68 -74 -123 -175 -235 -36 -40 -88 -104 -114 -143 -58 -85 -91
-106 -172 -109 -89 -3 -126 19 -192 114 -30 42 -79 104 -109 136 -94 103 -145
171 -176 237 -36 76 -85 246 -181 625 -73 293 -147 533 -196 637 l-27 59 -18
-59 c-129 -452 -561 -779 -1070 -813 -451 -30 -865 145 -1110 471 -234 310
-270 693 -99 1054 65 138 138 241 242 344 l87 86 -196 7 c-126 4 -207 12 -228
20 -120 50 -102 235 25 267 38 10 114 10 345 -1z"/>
<path d="M1175 4713 c-235 -31 -466 -219 -585 -476 -53 -114 -73 -202 -73
-322 0 -119 19 -199 73 -310 98 -203 303 -363 565 -442 84 -25 103 -27 275
-27 158 0 196 4 262 22 307 85 526 271 624 533 24 66 28 88 28 199 1 118 -1
128 -28 183 -39 80 -129 173 -268 278 -228 173 -356 245 -548 309 -168 56
-230 66 -325 53z m360 -210 c95 -23 217 -99 285 -177 94 -107 142 -235 143
-381 1 -161 -53 -292 -167 -409 -230 -233 -599 -234 -831 -2 -233 233 -231
590 5 824 148 147 350 199 565 145z"/>
<path d="M1280 4389 c-126 -24 -258 -132 -318 -257 -81 -171 -40 -391 98 -516
106 -96 195 -129 335 -124 91 3 107 7 176 40 249 118 342 410 204 638 -104
171 -298 257 -495 219z"/>
<path d="M5634 4701 c-267 -72 -417 -149 -682 -350 -139 -105 -229 -198 -268
-278 -27 -55 -29 -65 -28 -183 0 -111 4 -133 28 -199 98 -262 317 -448 624
-533 66 -18 104 -22 262 -22 172 0 191 2 275 27 261 79 466 238 566 442 53
109 72 189 72 310 0 196 -76 386 -220 548 -177 199 -426 293 -629 238z m146
-198 c185 -51 350 -212 406 -398 26 -83 26 -250 0 -325 -34 -100 -79 -173
-154 -248 -229 -231 -598 -229 -828 4 -114 117 -168 248 -167 409 1 146 49
274 143 381 145 166 384 237 600 177z"/>
<path d="M5515 4386 c-116 -29 -226 -111 -290 -216 -138 -228 -45 -520 204
-638 67 -32 86 -37 172 -40 109 -5 169 9 254 60 151 90 232 241 223 418 -3 73
-9 97 -39 161 -95 199 -316 306 -524 255z"/>
</g>
</svg>
