<?xml version="1.0" encoding="UTF-8" standalone="no"?>
<!-- Generator: Adobe Illustrator 16.0.3, SVG Export Plug-In . SVG Version: 6.00 Build 0)  -->

<svg
   xmlns:dc="http://purl.org/dc/elements/1.1/"
   xmlns:cc="http://creativecommons.org/ns#"
   xmlns:rdf="http://www.w3.org/1999/02/22-rdf-syntax-ns#"
   xmlns:svg="http://www.w3.org/2000/svg"
   xmlns="http://www.w3.org/2000/svg"
   xmlns:sodipodi="http://sodipodi.sourceforge.net/DTD/sodipodi-0.dtd"
   xmlns:inkscape="http://www.inkscape.org/namespaces/inkscape"
   version="1.1"
   id="Ebene_1"
   x="0px"
   y="0px"
   width="500"
   height="500"
   viewBox="0 0 500 500"
   enable-background="new 0 0 3227 480"
   xml:space="preserve"
   sodipodi:docname="tiho_fav.svg"
   inkscape:version="0.92.2 5c3e80d, 2017-08-06"><metadata
     id="metadata205"><rdf:RDF><cc:Work
         rdf:about=""><dc:format>image/svg+xml</dc:format><dc:type
           rdf:resource="http://purl.org/dc/dcmitype/StillImage" /><dc:title></dc:title></cc:Work></rdf:RDF></metadata><defs
     id="defs203" /><sodipodi:namedview
     pagecolor="#ffffff"
     bordercolor="#666666"
     borderopacity="1"
     objecttolerance="10"
     gridtolerance="10"
     guidetolerance="10"
     inkscape:pageopacity="0"
     inkscape:pageshadow="2"
     inkscape:window-width="1920"
     inkscape:window-height="1002"
     id="namedview201"
     showgrid="false"
     fit-margin-top="0"
     fit-margin-left="0"
     fit-margin-right="0"
     fit-margin-bottom="0"
     inkscape:pagecheckerboard="false"
     inkscape:zoom="1"
     inkscape:cx="276.15171"
     inkscape:cy="158.52214"
     inkscape:window-x="0"
     inkscape:window-y="0"
     inkscape:window-maximized="1"
     inkscape:current-layer="Ebene_1" /><rect
     style="color:#000000;clip-rule:nonzero;display:inline;overflow:visible;visibility:visible;opacity:1;isolation:auto;mix-blend-mode:normal;color-interpolation:sRGB;color-interpolation-filters:linearRGB;solid-color:#000000;solid-opacity:1;vector-effect:none;fill:#0069b4;fill-opacity:1;fill-rule:nonzero;stroke:none;stroke-width:9.8064394;stroke-linecap:round;stroke-linejoin:miter;stroke-miterlimit:4;stroke-dasharray:none;stroke-dashoffset:0;stroke-opacity:1;color-rendering:auto;image-rendering:auto;shape-rendering:auto;text-rendering:auto;enable-background:accumulate"
     id="rect1036"
     width="500"
     height="500"
     x="0"
     y="0" /><path
     style="fill:none;stroke:#0069b4;stroke-width:4.87849092;stroke-linejoin:round;stroke-miterlimit:2.61310005"
     inkscape:connector-curvature="0"
     id="path10"
     d="m 249.66913,60.925272 c 8.85249,0.01479 13.81337,0.925123 18.44836,1.178582 4.71806,0.257683 7.12714,2.135388 11.8303,2.591613 9.07187,0.882881 8.68208,-3.523073 23.16854,-3.111203 9.41908,0.266131 9.71302,0.291477 15.79432,1.3729 -0.87758,4.876965 -9.0868,7.836093 -10.1433,12.88203 -0.80729,3.850457 6.28791,6.910969 8.40518,12.313861 4.4028,11.211315 4.76492,21.066625 5.96627,32.706705 0.65604,6.28789 0.55594,13.44387 4.30696,19.86059 3.34204,5.7176 8.83118,7.67557 14.76763,20.77304 19.48994,43.03937 1.55919,92.64332 -14.76763,141.77625 -14.93378,44.94242 -28.05489,82.34234 -32.25108,96.85706 -1.97669,6.83283 5.65315,13.99091 14.9146,21.04551 6.30495,9.72225 3.22703,14.52107 3.22703,14.52107 0,0 -8.87805,-12.12166 -20.02247,-11.31693 -11.31056,0.81318 -23.45184,16.23614 -23.45184,16.23614 -10.00058,-8.6514 7.99834,-24.77347 7.99834,-24.77347 0.10226,-0.32316 -14.64835,-3.05206 -18.95531,6.99757 -1.94048,4.53268 -4.29844,-7.60586 2.42399,-12.45327 1.2333,-0.89133 1.78712,-1.20181 1.81055,-1.1659 0.10442,0.14996 -7.31885,5.29939 -13.4683,2.75847 -6.1452,2.54092 -12.21158,-2.60639 -12.10934,-2.75847 0.0234,-0.038 0.57299,0.27457 1.81054,1.1659 6.7267,4.84951 4.36447,16.98595 2.42187,12.45327 -4.30482,-10.05175 -19.05968,-7.32284 -18.94892,-6.99757 0,0 17.99254,16.12207 7.99195,24.77347 0,0 -12.13915,-15.42296 -23.44758,-16.23614 -11.14868,-0.80473 -20.02886,11.31693 -20.02886,11.31693 0,0 -3.07366,-4.79882 3.22916,-14.52107 6.56481,-4.99736 12.30955,-10.04963 14.39488,-14.9963 0.86053,-2.03611 1.09696,-4.05322 0.52185,-6.04921 -4.20046,-14.51472 -17.31729,-51.91464 -32.25533,-96.85706 -16.32257,-49.13293 -34.25333,-98.73688 -14.76125,-141.77625 5.93432,-13.09747 11.41707,-15.05544 14.76125,-20.77304 3.75528,-6.41672 3.65516,-13.5727 4.30696,-19.86059 1.2056,-11.64008 1.56771,-21.49539 5.97265,-32.706705 2.12153,-5.402892 9.21459,-8.463404 8.40518,-12.313861 -1.05864,-5.045937 -9.26572,-8.005065 -10.14756,-12.88203 6.09194,-1.081423 6.38164,-1.106769 15.79645,-1.3729 14.49072,-0.41187 14.09666,3.994084 23.17067,3.111203 4.70102,-0.456225 7.11224,-2.33393 11.82817,-2.591613 4.63286,-0.253459 8.23476,-1.165909 17.08512,-1.178582 z"
     stroke-miterlimit="2.6131" /><g
     id="g1255"
     style="fill:none;stroke:#ffffff"
     transform="matrix(4.3795426,0,0,4.3795426,-846.41245,-226.02352)"><path
       d="m 276.38208,101.47652 c 0,-4.688979 3.83622,-8.490856 8.56493,-8.490856 4.72871,0 8.56067,3.801877 8.56067,8.490856 0,4.68899 -3.83196,8.48875 -8.56067,8.48875 -4.72871,0 -8.56493,-3.79976 -8.56493,-8.48875 z"
       id="path12"
       inkscape:connector-curvature="0"
       style="fill:none;stroke:#ffffff;stroke-width:2.12108302" /><path
       stroke-miterlimit="2.6131"
       d="m 276.38208,101.47652 c 0,-4.688979 3.83622,-8.490856 8.56493,-8.490856 4.72871,0 8.56067,3.801877 8.56067,8.490856 0,4.68899 -3.83196,8.48875 -8.56067,8.48875 -4.72871,0 -8.56493,-3.79976 -8.56493,-8.48875 z"
       id="path14"
       inkscape:connector-curvature="0"
       style="fill:none;stroke:#ffffff;stroke-width:2.12065864;stroke-miterlimit:2.61310005" /><path
       stroke-miterlimit="2.6131"
       d="m 266.65415,101.95176 c 0,-4.750237 3.62321,-7.445345 7.52333,-10.235502 2.99486,-2.145949 6.20909,-4.154607 9.87278,-4.984684 9.36582,-2.120603 17.39611,6.815922 17.39611,15.220186 0,8.40426 -7.78959,15.21807 -17.39611,15.21807 -9.60653,0 -17.39611,-6.81381 -17.39611,-15.21807"
       id="path16"
       inkscape:connector-curvature="0"
       style="fill:none;stroke:#ffffff;stroke-width:4.87849092;stroke-miterlimit:2.61310005" /><path
       stroke-miterlimit="2.6131"
       d="m 250.78954,132.37101 c 2.41547,-4.01098 4.56895,-4.48411 5.62972,-8.01774 3.82557,-12.72573 3.40169,-19.64093 11.84946,-28.015618 9.98567,-9.90178 20.05229,-11.209203 34.34705,-11.35283"
       id="path18"
       inkscape:connector-curvature="0"
       style="fill:none;stroke:#ffffff;stroke-width:4.87849092;stroke-linecap:round;stroke-miterlimit:2.61310005" /><path
       d="m 207.19169,101.47652 c 0,-4.688979 3.83409,-8.490856 8.55854,-8.490856 4.73084,0 8.56493,3.801877 8.56493,8.490856 0,4.68899 -3.83409,8.48875 -8.56493,8.48875 -4.72445,0 -8.55854,-3.79976 -8.55854,-8.48875 z"
       id="path32"
       inkscape:connector-curvature="0"
       style="fill:none;stroke:#ffffff;stroke-width:2.12108302" /><path
       stroke-miterlimit="2.6131"
       d="m 207.19169,101.47652 c 0,-4.688979 3.83409,-8.490856 8.55854,-8.490856 4.73084,0 8.56493,3.801877 8.56493,8.490856 0,4.68899 -3.83409,8.48875 -8.56493,8.48875 -4.72445,0 -8.55854,-3.79976 -8.55854,-8.48875 z"
       id="path34"
       inkscape:connector-curvature="0"
       style="fill:none;stroke:#ffffff;stroke-width:2.12065864;stroke-miterlimit:2.61310005" /><path
       stroke-miterlimit="2.6131"
       d="m 234.0431,101.95176 c 0,-4.750237 -3.61897,-7.445345 -7.52121,-10.235502 -2.9991,-2.145949 -6.20697,-4.154607 -9.87491,-4.984684 -9.36583,-2.120603 -17.39398,6.815922 -17.39398,15.220186 0,8.40426 7.78959,15.21807 17.39398,15.21807 9.60865,0 17.39612,-6.81381 17.39612,-15.21807"
       id="path36"
       inkscape:connector-curvature="0"
       style="fill:none;stroke:#ffffff;stroke-width:4.87849092;stroke-miterlimit:2.61310005" /><path
       stroke-miterlimit="2.6131"
       d="m 249.90983,132.37101 c -2.41761,-4.01098 -4.57321,-4.48411 -5.63611,-8.01774 -3.82131,-12.72573 -3.40383,-19.64093 -11.84947,-28.015618 -9.98567,-9.90178 -20.05228,-11.209203 -34.34278,-11.35283"
       id="path38"
       inkscape:connector-curvature="0"
       style="fill:none;stroke:#ffffff;stroke-width:4.87849092;stroke-linecap:round;stroke-miterlimit:2.61310005" /></g></svg>