<svg xmlns="http://www.w3.org/2000/svg" width="448.467" height="449.27" viewBox="0 0 448.46701 449.26999"><path d="M406.306 224.855c0 100.515-81.483 182-182 182-100.516 0-182-81.485-182-182 0-100.516 81.484-182 182-182s182 81.484 182 182z" fill="#0069b4"/><path d="M336.968 210.577c0-65 9.332-104.78 9.332-104.78S283.993 81.995 224.723 81.94h-.126c-59.27.055-121.577 23.857-121.577 23.857s9.332 39.78 9.332 104.78-8.686 103.383-8.686 103.383 37.872-11.73 89.925-15.607c-.33.545-.97 1.81-1.21 2.378-48.07 3.46-87.24 15.3-87.24 15.3s6.17 6.17 18.75 19.5 33.5 27.59 45.84 34.17c12.34 6.59 24.29 10.95 27.17 12.08 2.88 1.13 15.85 6.25 20.69 8.47 4.85 2.22 6.89 4.84 6.89 4.84h.39s2.05-2.62 6.89-4.84c4.85-2.21 17.82-7.34 20.69-8.46s14.84-5.49 27.17-12.07 33.25-20.83 45.84-34.16c12.59-13.33 18.75-19.5 18.75-19.5s-39.16-11.83-87.24-15.29c.12-.54-1.39-1.86-1.72-2.4 52.06 3.87 90.44 15.63 90.44 15.63S337 275.6 337 210.6z" fill="#fff"/><path d="M257.957 303.064c0 8.95-14.958 16.208-33.41 16.208-18.45 0-33.407-7.257-33.407-16.208 0-8.953 14.958-16.21 33.408-16.21 18.45 0 33.41 7.257 33.41 16.21z" fill="#fff"/><path d="M224.376 128.726c4.156.007 6.485.438 8.66.558 2.216.122 3.347 1.01 5.555 1.227 4.26.42 4.08-1.66 10.88-1.47 4.42.13 4.56.14 7.42.65-.41 2.31-4.26 3.71-4.76 6.1-.38 1.82 2.96 3.27 3.95 5.83 2.07 5.31 2.24 9.98 2.8 15.49.31 2.98.26 6.37 2.03 9.41 1.57 2.71 4.15 3.64 6.94 9.84 9.15 20.38.73 43.87-6.93 67.13-7.01 21.28-13.17 38.99-15.14 45.86-.93 3.24 2.65 6.63 7 9.97 2.96 4.61 1.52 6.88 1.52 6.88s-4.17-5.74-9.4-5.36c-5.31.39-11.01 7.69-11.01 7.69-4.69-4.09 3.76-11.73 3.76-11.73.05-.15-6.87-1.44-8.9 3.32-.91 2.15-2.02-3.6 1.14-5.89.58-.42.84-.57.85-.55.05.07-3.43 2.51-6.32 1.31-2.88 1.2-5.73-1.23-5.68-1.31.01-.02.27.13.85.55 3.16 2.3 2.05 8.04 1.14 5.9-2.02-4.76-8.95-3.46-8.9-3.31 0 0 8.45 7.64 3.75 11.73 0 0-5.7-7.3-11.01-7.69-5.23-.38-9.4 5.36-9.4 5.36s-1.44-2.27 1.52-6.87c3.09-2.36 5.78-4.76 6.76-7.1.41-.96.52-1.92.25-2.86-1.97-6.87-8.13-24.58-15.14-45.85-7.66-23.26-16.08-46.75-6.93-67.13 2.79-6.2 5.36-7.13 6.93-9.84 1.76-3.04 1.72-6.42 2.02-9.4.57-5.51.74-10.18 2.8-15.49 1-2.56 4.33-4 3.95-5.83-.49-2.39-4.35-3.79-4.76-6.1 2.86-.51 3-.52 7.42-.65 6.81-.19 6.62 1.89 10.88 1.48 2.21-.21 3.34-1.1 5.56-1.22 2.17-.12 3.86-.55 8.02-.56z" fill="#fff"/><path stroke-miterlimit="2.613" d="M224.376 128.726c4.156.007 6.485.438 8.66.558 2.216.122 3.347 1.01 5.555 1.227 4.26.42 4.08-1.66 10.88-1.47 4.42.13 4.56.14 7.42.65-.41 2.31-4.26 3.71-4.76 6.1-.38 1.82 2.96 3.27 3.95 5.83 2.07 5.31 2.24 9.98 2.8 15.49.31 2.98.26 6.37 2.03 9.41 1.57 2.71 4.15 3.64 6.94 9.84 9.15 20.38.73 43.87-6.93 67.13-7.01 21.28-13.17 38.99-15.14 45.86-.93 3.24 2.65 6.63 7 9.97 2.96 4.61 1.52 6.88 1.52 6.88s-4.17-5.74-9.4-5.36c-5.31.39-11.01 7.69-11.01 7.69-4.69-4.09 3.76-11.73 3.76-11.73.05-.15-6.87-1.44-8.9 3.32-.91 2.15-2.02-3.6 1.14-5.89.58-.42.84-.57.85-.55.05.07-3.43 2.51-6.32 1.31-2.88 1.2-5.73-1.23-5.68-1.31.01-.02.27.13.85.55 3.16 2.3 2.05 8.04 1.14 5.9-2.02-4.76-8.95-3.46-8.9-3.31 0 0 8.45 7.64 3.75 11.73 0 0-5.7-7.3-11.01-7.69-5.23-.38-9.4 5.36-9.4 5.36s-1.44-2.27 1.52-6.87c3.09-2.36 5.78-4.76 6.76-7.1.41-.96.52-1.92.25-2.86-1.97-6.87-8.13-24.58-15.14-45.85-7.66-23.26-16.08-46.75-6.93-67.13 2.79-6.2 5.36-7.13 6.93-9.84 1.76-3.04 1.72-6.42 2.02-9.4.57-5.51.74-10.18 2.8-15.49 1-2.56 4.33-4 3.95-5.83-.49-2.39-4.35-3.79-4.76-6.1 2.86-.51 3-.52 7.42-.65 6.81-.19 6.62 1.89 10.88 1.48 2.21-.21 3.34-1.1 5.56-1.22 2.17-.12 3.86-.55 8.02-.56z" fill="none" stroke="#0069b4" stroke-width="2.3" stroke-linejoin="round"/><path d="M236.917 147.925c0-2.22 1.8-4.02 4.02-4.02 2.22 0 4.02 1.8 4.02 4.02 0 2.22-1.8 4.02-4.02 4.02-2.22 0-4.02-1.8-4.02-4.02z" fill="#0069b4"/><path stroke-miterlimit="2.613" d="M236.917 147.925c0-2.22 1.8-4.02 4.02-4.02 2.22 0 4.02 1.8 4.02 4.02 0 2.22-1.8 4.02-4.02 4.02-2.22 0-4.02-1.8-4.02-4.02z" fill="none" stroke="#0069b4"/><path stroke-miterlimit="2.613" d="M232.35 148.15c0-2.25 1.7-3.525 3.532-4.846 1.406-1.016 2.915-1.967 4.635-2.36 4.397-1.004 8.167 3.227 8.167 7.206 0 3.98-3.657 7.205-8.167 7.205s-8.167-3.226-8.167-7.205" fill="none" stroke="#0069b4" stroke-width="2.3"/><path stroke-miterlimit="2.613" d="M224.902 162.552c1.134-1.9 2.145-2.123 2.643-3.796 1.796-6.025 1.597-9.3 5.563-13.264 4.688-4.688 9.414-5.307 16.125-5.375" fill="none" stroke="#0069b4" stroke-width="2.3" stroke-linecap="round"/><path stroke-miterlimit="2.613" d="M245.973 292.296c-4.073-5.53-.83-15.527 1.607-24.71 6.61-24.884 16.462-49.086 17.013-68.312.295-10.237-.27-14.586-3.385-28.58-.436-1.955-2.1-4.158-1.7-7.614m-55.882 128.922c3.75-5.587.58-15.395-1.816-24.416-6.61-24.884-16.46-49.086-17.014-68.312-.294-10.237.274-14.586 3.387-28.58.434-1.955 2.1-4.158 1.7-7.614" fill="none" stroke="#0069b4" stroke-width="2.3" stroke-linecap="round" stroke-linejoin="round"/><path stroke-miterlimit="2" d="M225.075 332.262c1.572.123 1.03-2.235 1.146-3.734.27-3.422-.39-6.727.99-8.748 2.19-3.214 7.62-2.703 12.65-2.637 6.7.09 15.83 3.206 16.39 5.174 1.16 4.02.06 10.984-1.73 16.908-1.35 4.5-3.21 9.31-7.13 9.947-4.09.67-11.1-5.986-12.58-3.91-2.62 3.66 7.98 4.563 9.83 8.676 4.95 10.98-16.84 20.55-19.55 21.225m0 0h-.69m0 0c-2.7-.675-24.5-10.244-19.55-21.226 1.86-4.113 12.45-5.015 9.83-8.676-1.48-2.07-8.5 4.58-12.58 3.91-3.91-.63-5.77-5.44-7.13-9.94-1.78-5.92-2.88-12.89-1.73-16.91.57-1.97 9.69-5.08 16.39-5.17 5.05-.06 10.47-.57 12.66 2.64 1.38 2.02.72 5.33.98 8.75.12 1.5-.43 3.86 1.15 3.74m0 .01h.69" fill="none" stroke="#0069b4" stroke-width="2.3" stroke-linecap="round"/><path stroke-miterlimit="2.613" d="M224.652 338.72c4.055.273 12.454-7.16 13.762-5.27 1.656 2.39-4.073 3.89-8.21 7.84-3.177 3.037-3.953 3.153-4.225 15.44-.03.96.47 4.347-1.33 4.347-1.83 0-1.3-3.388-1.33-4.348-.28-12.29-1.05-12.41-4.23-15.44-4.14-3.95-9.87-5.45-8.21-7.84 1.31-1.89 9.71 5.54 13.76 5.27" fill="none" stroke="#0069b4" stroke-width="1.9" stroke-linecap="round"/><path d="M223.885 342.513c0-.72.345-1.307.768-1.307.423 0 .767.586.767 1.307 0 .72-.344 1.305-.767 1.305-.423 0-.768-.586-.768-1.305z" fill="#0069b4"/><path stroke-miterlimit="2.613" d="M223.885 342.513c0-.72.345-1.307.768-1.307.423 0 .767.586.767 1.307 0 .72-.344 1.305-.767 1.305-.423 0-.768-.586-.768-1.305z" fill="none" stroke="#0069b4"/><path stroke-miterlimit="2.613" d="M208.053 215.628c-.277 1.874-.277 2.984 0 4.86.292 1.96.64 3.076 1.514 4.855m-4.765-37.842c-.278 1.88-.278 2.99 0 4.86.293 1.96.64 3.08 1.515 4.86m1.917 48.4c-.29 2.04-.205 3.29.364 5.26.465 1.63.903 2.53 1.892 3.9m39.037-62.9c.375 1.95.33 3.17-.183 5.09-.436 1.63-.88 2.54-1.893 3.89m-3.61 15.02c-.32 2.42-.62 3.77-1.37 6.09-.58 1.83-.99 2.84-1.83 4.56M233.18 256c-.17 2.143-.43 3.365-1.13 5.4-.54 1.577-.94 2.445-1.77 3.89m.55-34.778c-.04 1.915-.072 3-.18 4.92-.104 1.99-.184 3.11-.36 5.1m-7.132-48.11c.04 1.92.08 3.004.18 4.92.107 1.994.19 3.116.365 5.1" fill="none" stroke="#0069b4" stroke-width="1.9" stroke-linecap="round"/><path d="M204.434 147.925c0-2.22 1.8-4.02 4.018-4.02 2.22 0 4.02 1.8 4.02 4.02 0 2.22-1.8 4.02-4.02 4.02-2.218 0-4.018-1.8-4.018-4.02z" fill="#0069b4"/><path stroke-miterlimit="2.613" d="M204.434 147.925c0-2.22 1.8-4.02 4.018-4.02 2.22 0 4.02 1.8 4.02 4.02 0 2.22-1.8 4.02-4.02 4.02-2.218 0-4.018-1.8-4.018-4.02z" fill="none" stroke="#0069b4"/><path stroke-miterlimit="2.613" d="M217.04 148.15c0-2.25-1.7-3.525-3.53-4.846-1.41-1.016-2.915-1.967-4.637-2.36-4.397-1.004-8.166 3.227-8.166 7.206 0 3.98 3.657 7.205 8.166 7.205 4.51 0 8.167-3.226 8.167-7.205" fill="none" stroke="#0069b4" stroke-width="2.3"/><path stroke-miterlimit="2.613" d="M224.49 162.552c-1.136-1.9-2.148-2.123-2.647-3.796-1.794-6.025-1.598-9.3-5.563-13.264-4.688-4.688-9.414-5.307-16.123-5.375" fill="none" stroke="#0069b4" stroke-width="2.3" stroke-linecap="round"/><path fill="#fff" d="M141.146 306.252l-6.404 1.294V141.592h6.404"/><path stroke-miterlimit="2.613" fill="none" stroke="#0069b4" stroke-width="2.3" d="M141.146 306.252l-6.404 1.294V141.592h6.404z"/><path d="M169.985 151.003h-21.077c-7.668.276-21.017 6.9-23.833 17.6-2.718 10.322 4.25 20.36 9.987 26.097 4.166 4.167 8.562 5.6 9.656 9.602 1.598 5.848-4 11.858-8.39 18.646-4.23 6.546-8.768 12.523-8.602 20.52.178 8.636 11.746 15.34 14.947 22.788 3.186 7.402-4.062 12.402-9.982 17.488-3.08 2.65-6.16 7.016-7.5 10.814-.33 1.763-.86 3.403-.44 5.24.88 3.81 8.17-7.06 13.24-12.02 5.59-5.468 11.56-11.495 11.65-17.825.17-11.924-13.05-17.096-14.87-26.752-2.52-13.39 14.48-21.52 16.09-35.59 1.67-14.59-20.8-21.4-19.8-35.36.46-6.37 9.61-14.19 19.09-14.62 3.81-.17 5.55 3.3 8 3.25 3.06-.06 5.28-1.33 8.66-2.94 1.35-.63 2.87-1.32 4.71-2.01 1.66-.62 3.41-1.63 3.04-3.36-.39-1.83-3.58-1.52-4.54-1.55z" fill="#fff"/><path stroke-miterlimit="2.613" d="M169.985 151.003h-21.077c-7.668.276-21.017 6.9-23.833 17.6-2.718 10.322 4.25 20.36 9.987 26.097 4.166 4.167 8.562 5.6 9.656 9.602 1.598 5.848-4 11.858-8.39 18.646-4.23 6.546-8.768 12.523-8.602 20.52.178 8.636 11.746 15.34 14.947 22.788 3.186 7.402-4.062 12.402-9.982 17.488-3.08 2.65-6.16 7.016-7.5 10.814-.33 1.763-.86 3.403-.44 5.24.88 3.81 8.17-7.06 13.24-12.02 5.59-5.468 11.56-11.495 11.65-17.825.17-11.924-13.05-17.096-14.87-26.752-2.52-13.39 14.48-21.52 16.09-35.59 1.67-14.59-20.8-21.4-19.8-35.36.46-6.37 9.61-14.19 19.09-14.62 3.81-.17 5.55 3.3 8 3.25 3.06-.06 5.28-1.33 8.66-2.94 1.35-.63 2.87-1.32 4.71-2.01 1.66-.62 3.41-1.63 3.04-3.36-.39-1.83-3.58-1.52-4.54-1.55z" fill="none" stroke="#0069b4" stroke-width="1.9"/><path d="M162.137 151.003c-.104 1.543-1.72 2.768-3.694 2.768-1.973 0-3.588-1.22-3.694-2.76h7.38z" fill="#0069b4"/><path fill="#0069b4" d="M158.648 154.128l.2-.012.2-.02.197-.028.196-.036.19-.042.19-.05.18-.057.18-.063.18-.07.17-.078.16-.083.16-.09.16-.1.15-.1.15-.11.14-.11.13-.12.12-.13.12-.13.11-.14.1-.14.09-.14.09-.15.08-.15.07-.16.06-.16.05-.17.04-.17.03-.17.02-.17h-.72l-.01.09-.02.12-.03.12-.03.12-.04.11-.05.12-.05.11-.06.11-.07.11-.08.11-.08.1-.09.1-.09.09-.1.09-.11.09-.12.09-.12.08-.12.08-.14.07-.13.07-.14.06-.14.06-.15.05-.15.05-.16.04-.17.03-.16.03-.17.02-.17.02-.17.01h-.172v.72m-4.04-2.95l.03.17.04.17.05.17.06.16.07.16.075.15.08.15.093.14.1.14.11.13.11.13.128.12.13.12.14.11.14.11.14.1.15.09.16.09.16.08.17.08.174.07.18.06.18.06.18.05.19.04.2.03.194.03.2.02.2.01h.21v-.73h-.18l-.17-.01-.17-.01-.17-.03-.162-.03-.16-.04-.153-.04-.16-.05-.15-.05-.15-.06-.14-.07-.14-.07-.13-.077-.12-.08-.12-.08-.12-.09-.11-.09-.1-.095-.1-.1-.09-.1-.09-.1-.07-.11-.08-.11-.07-.11-.052-.12-.05-.116-.04-.12-.04-.12-.03-.12-.02-.13-.01-.09h-.72v.01"/><path stroke-miterlimit="2.613" fill="none" stroke="#0069b4" stroke-width="1.4" d="M176.086 157.77h-18.708"/><path d="M146.034 135.984c0 4.41-3.574 7.986-7.985 7.986-4.42 0-7.99-3.575-7.99-7.986 0-4.41 3.57-7.986 7.98-7.986s7.98 3.575 7.98 7.986z" fill="#fff"/><path stroke-miterlimit="2.613" d="M146.034 135.984c0 4.41-3.574 7.986-7.985 7.986-4.42 0-7.99-3.575-7.99-7.986 0-4.41 3.57-7.986 7.98-7.986s7.98 3.575 7.98 7.986z" fill="none" stroke="#0069b4" stroke-width="2.3"/><path fill="#fff" d="M141.146 198.577l-6.404.14v-18.155h6.404"/><path stroke-miterlimit="2.613" fill="none" stroke="#0069b4" stroke-width="2.3" d="M141.146 198.577l-6.404.14v-18.155h6.404z"/><path fill="#fff" d="M139.993 201.354l-4.11.193v-24.84h4.11m1.153 89.65l-6.404.187v-24.097h6.404"/><path stroke-miterlimit="2.613" fill="none" stroke="#0069b4" stroke-width="2.3" d="M141.146 266.356l-6.404.188v-24.097h6.404z"/><path fill="#fff" d="M139.993 270.564l-4.11.236v-29.97h4.11m167.923 65.422l6.405 1.294V141.592h-6.4"/><path stroke-miterlimit="2.613" fill="none" stroke="#0069b4" stroke-width="2.3" d="M307.916 306.252l6.405 1.294V141.592h-6.4z"/><path d="M279.077 151.003h21.078c7.668.276 21.016 6.9 23.833 17.6 2.717 10.322-4.25 20.36-9.988 26.097-4.166 4.167-8.562 5.6-9.656 9.602-1.598 5.848 4 11.858 8.39 18.646 4.23 6.546 8.77 12.523 8.603 20.52-.178 8.636-11.746 15.34-14.947 22.788-3.186 7.402 4.063 12.402 9.982 17.488 3.085 2.65 6.17 7.016 7.506 10.814.33 1.763.866 3.403.44 5.24-.88 3.81-8.166-7.06-13.24-12.02-5.588-5.468-11.553-11.495-11.644-17.825-.17-11.924 13.052-17.096 14.87-26.752 2.52-13.39-14.48-21.52-16.083-35.59-1.66-14.59 20.81-21.4 19.81-35.36-.45-6.37-9.61-14.19-19.09-14.62-3.8-.17-5.54 3.3-8 3.25-3.06-.06-5.27-1.33-8.66-2.94-1.34-.63-2.87-1.32-4.7-2.01-1.65-.62-3.4-1.63-3.04-3.36.39-1.83 3.58-1.52 4.54-1.55z" fill="#fff"/><path stroke-miterlimit="2.613" d="M279.077 151.003h21.078c7.668.276 21.016 6.9 23.833 17.6 2.717 10.322-4.25 20.36-9.988 26.097-4.166 4.167-8.562 5.6-9.656 9.602-1.598 5.848 4 11.858 8.39 18.646 4.23 6.546 8.77 12.523 8.603 20.52-.178 8.636-11.746 15.34-14.947 22.788-3.186 7.402 4.063 12.402 9.982 17.488 3.085 2.65 6.17 7.016 7.506 10.814.33 1.763.866 3.403.44 5.24-.88 3.81-8.166-7.06-13.24-12.02-5.588-5.468-11.553-11.495-11.644-17.825-.17-11.924 13.052-17.096 14.87-26.752 2.52-13.39-14.48-21.52-16.083-35.59-1.66-14.59 20.81-21.4 19.81-35.36-.45-6.37-9.61-14.19-19.09-14.62-3.8-.17-5.54 3.3-8 3.25-3.06-.06-5.27-1.33-8.66-2.94-1.34-.63-2.87-1.32-4.7-2.01-1.65-.62-3.4-1.63-3.04-3.36.39-1.83 3.58-1.52 4.54-1.55z" fill="none" stroke="#0069b4" stroke-width="1.9"/><path d="M286.925 151.003c.106 1.543 1.72 2.768 3.694 2.768 1.97 0 3.58-1.22 3.69-2.76h-7.39z" fill="#0069b4"/><path fill="#0069b4" d="M290.414 154.128l-.2-.012-.2-.02-.197-.028-.196-.036-.18-.042-.18-.05-.18-.057-.18-.063-.17-.07-.17-.078-.16-.083-.16-.09-.15-.1-.14-.1-.14-.11-.13-.11-.13-.12-.12-.13-.11-.13-.11-.14-.1-.14-.09-.14-.08-.15-.08-.15-.06-.16-.05-.16-.05-.17-.04-.17-.03-.17-.01-.17h.73l.01.09.02.12.03.12.04.12.05.11.05.12.06.11.07.11.07.11.08.11.08.1.09.1.1.09.1.09.11.09.12.09.12.08.13.08.14.07.14.07.14.06.14.06.15.05.16.05.15.04.16.03.16.03.17.02.17.02.17.01h.18v.72m4.04-2.95l-.03.17-.03.17-.04.16-.056.16-.07.16-.075.15-.083.15-.09.14-.1.14-.11.13-.12.12-.12.12-.13.12-.14.11-.14.11-.14.1-.152.093-.16.09-.163.08-.17.08-.18.07-.18.06-.18.052-.18.05-.19.04-.195.03-.19.03-.2.02-.2.01-.2.004v-.72h.18l.18-.01.17-.02.168-.024.17-.03.168-.03.158-.04.15-.05.15-.056.15-.06.14-.06.14-.07.13-.07.13-.08.12-.08.12-.09.11-.09.1-.09.09-.09.094-.1.08-.1.08-.11.07-.11.07-.11.06-.12.05-.12.04-.12.04-.12.03-.12.02-.13.01-.09h.72v.01"/><path stroke-miterlimit="2.613" fill="none" stroke="#0069b4" stroke-width="1.4" d="M272.976 157.77h18.708"/><path d="M303.028 135.984c0 4.41 3.574 7.986 7.984 7.986s7.985-3.575 7.985-7.986c0-4.41-3.574-7.986-7.985-7.986-4.41 0-7.984 3.575-7.984 7.986z" fill="#fff"/><path stroke-miterlimit="2.613" d="M303.028 135.984c0 4.41 3.574 7.986 7.984 7.986s7.985-3.575 7.985-7.986c0-4.41-3.574-7.986-7.985-7.986-4.41 0-7.984 3.575-7.984 7.986z" fill="none" stroke="#0069b4" stroke-width="2.3"/><path fill="#fff" d="M307.916 198.577l6.405.14v-18.155h-6.4"/><path stroke-miterlimit="2.613" fill="none" stroke="#0069b4" stroke-width="2.3" d="M307.916 198.577l6.405.14v-18.155h-6.4z"/><path fill="#fff" d="M309.07 201.354l4.11.193v-24.84h-4.11m-1.154 89.65l6.405.187v-24.097h-6.4"/><path stroke-miterlimit="2.613" fill="none" stroke="#0069b4" stroke-width="2.3" d="M307.916 266.356l6.405.188v-24.097h-6.4z"/><path fill="#fff" d="M309.07 270.564l4.11.236v-29.97h-4.11"/><path d="M86.138 67.998c-.373-.434-.632-.846-.774-1.232-.144-.387-.195-.748-.154-1.086.04-.337.158-.65.353-.94.194-.29.438-.562.73-.814.284-.242.583-.438.9-.587.315-.15.643-.22.982-.21.34.01.693.11 1.06.31.365.19.735.51 1.11.94.363.42.61.83.745 1.21.133.38.182.75.146 1.09-.036.34-.15.66-.34.95-.19.29-.426.56-.708.8-.293.25-.6.45-.92.59-.32.14-.653.2-.998.19-.344-.02-.694-.12-1.05-.32-.357-.2-.718-.51-1.082-.93zm36.634-7.222c-1.222.748-2.378 1.28-3.47 1.594-1.09.315-2.09.436-3 .363-.91-.073-1.724-.34-2.44-.8-.718-.458-1.316-1.08-1.794-1.86-.463-.758-.602-1.513-.415-2.264.186-.76.713-1.4 1.58-1.93.515.76 1.093 1.43 1.736 2.03.64.59 1.33 1.04 2.07 1.35.74.3 1.52.43 2.34.37.82-.05 1.67-.35 2.55-.89 1.68-1.03 2.75-2.24 3.2-3.64.45-1.39.2-2.85-.73-4.38-.42-.69-.89-1.23-1.41-1.64-.52-.41-1.14-.69-1.87-.86-.73-.17-1.58-.23-2.57-.19-.99.04-2.17.17-3.55.39-1.45.23-2.78.34-3.98.33-1.2-.01-2.29-.18-3.27-.49-.98-.32-1.86-.8-2.64-1.44-.78-.65-1.49-1.49-2.12-2.51-.66-1.08-1.04-2.16-1.15-3.26-.11-1.1.03-2.16.4-3.18.37-1.03.97-2 1.79-2.92.81-.92 1.81-1.74 2.99-2.47 1.12-.69 2.19-1.18 3.2-1.48 1.01-.3 1.93-.44 2.77-.41.84.02 1.57.19 2.19.51.62.31 1.1.75 1.44 1.3.49.8.6 1.57.32 2.31-.28.73-.88 1.38-1.78 1.93-.36-.59-.79-1.12-1.27-1.6-.49-.49-1.04-.85-1.64-1.09-.61-.25-1.26-.35-1.97-.3-.71.05-1.46.31-2.26.8-.72.44-1.31.93-1.75 1.48-.45.55-.75 1.13-.91 1.74-.17.61-.19 1.24-.08 1.89.12.65.37 1.3.77 1.95.46.74.96 1.34 1.5 1.79.54.45 1.18.76 1.92.94.74.18 1.61.24 2.6.19 1-.05 2.17-.18 3.53-.41 1.37-.22 2.65-.35 3.81-.37 1.16-.03 2.24.09 3.21.34.97.25 1.85.66 2.64 1.23.78.57 1.47 1.33 2.06 2.3.72 1.18 1.15 2.38 1.29 3.58.13 1.2 0 2.37-.41 3.51-.41 1.14-1.08 2.22-2.01 3.25-.93 1.03-2.1 1.97-3.51 2.83zm25.705-19.256c.27.63.574 1.1.915 1.408.34.306.702.5 1.086.576.384.078.793.063 1.23-.045.437-.11.88-.26 1.326-.45l.93-.4.724 1.7-12.59 5.36-.725-1.7.93-.4c.446-.19.86-.4 1.235-.63.377-.23.678-.51.904-.82.223-.32.347-.69.372-1.13.022-.44-.092-.95-.345-1.55l-9.58-22.48-3.88 1.65c-.6.25-1.06.55-1.38.9-.33.35-.55.73-.68 1.14-.13.41-.17.85-.13 1.3.04.45.14.91.27 1.39l.52 1.83-2.09.89-2.82-7.16 22.79-9.71 3.21 6.99-2.1.89-.94-1.66c-.25-.43-.52-.81-.82-1.16-.31-.35-.65-.62-1.03-.82-.38-.2-.81-.3-1.3-.3-.48-.01-1.03.12-1.64.38l-3.93 1.67zm17.447-1.12l-.497-1.78.538-.15c.484-.134.926-.296 1.327-.482.402-.186.73-.43.99-.733.256-.302.42-.68.487-1.13.06-.45.01-1.005-.18-1.668l-5.76-20.614c-.19-.662-.43-1.168-.72-1.518-.29-.35-.63-.588-1-.713s-.79-.164-1.23-.115c-.44.048-.9.14-1.39.275l-.54.15-.5-1.78 12.34-3.444.49 1.78-.56.156c-.47.13-.91.29-1.32.48-.41.187-.74.432-.99.732s-.41.677-.49 1.13c-.07.45-.01 1.008.17 1.67l5.75 20.614c.19.663.43 1.168.73 1.516.3.35.63.586 1 .713.37.12.78.16 1.23.11.44-.05.9-.14 1.37-.27l.56-.16.49 1.78zm23.278-35.335l1.85 12.586 10.503-1.54.313 2.13-10.502 1.55 1.36 9.25c.1.68.275 1.22.527 1.6s.554.66.905.84c.35.18.75.27 1.202.27.45.01.915-.02 1.397-.09l1.446-.21.268 1.83-13.54 1.99-.27-1.82.56-.08c.48-.07.94-.17 1.36-.29.43-.13.79-.31 1.08-.56.3-.24.51-.58.65-.99.14-.42.16-.94.06-1.58l-3.17-21.6c-.09-.63-.26-1.13-.51-1.5-.25-.36-.55-.62-.91-.79-.35-.16-.75-.24-1.19-.24-.44 0-.91.04-1.39.11l-.55.08-.27-1.83L202.3.93l1.332 7.58-2.254.33L200.89 7c-.13-.49-.312-.937-.545-1.34-.233-.41-.533-.75-.9-1.02-.365-.27-.803-.47-1.312-.59-.512-.12-1.105-.13-1.786-.03zm39.01 21.452c-.01.688.087 1.24.278 1.657.19.417.446.738.766.962.32.224.702.374 1.148.45.44.074.906.113 1.395.117l1.01.008-.02 1.85-13.69-.1.01-1.85 1.01.01c.48.01.95-.02 1.38-.08.43-.06.82-.19 1.15-.39.33-.19.59-.49.79-.88.19-.39.29-.91.3-1.55l.18-24.43-4.21-.03c-.65-.01-1.19.09-1.63.28-.44.19-.8.45-1.08.78-.29.33-.5.71-.64 1.15-.14.44-.24.9-.3 1.39l-.25 1.89-2.28-.02.27-7.69 24.78.19.15 7.7-2.28-.02-.2-1.89c-.06-.48-.15-.95-.29-1.39-.14-.44-.35-.82-.62-1.15-.27-.33-.63-.6-1.07-.79-.45-.19-1-.29-1.65-.3l-4.28-.03zm30.448 8.466c-1.706-.308-3.204-.762-4.493-1.365-1.288-.603-2.33-1.38-3.128-2.33-.8-.952-1.34-2.088-1.61-3.41-.27-1.323-.25-2.865.07-4.627l3.02-16.81c.11-.63.11-1.16-.01-1.58-.12-.42-.33-.76-.61-1.03-.29-.27-.64-.47-1.06-.61-.42-.14-.87-.25-1.35-.34l-.55-.1.32-1.82 12.6 2.26-.33 1.82-.57-.1c-.48-.08-.95-.13-1.4-.14-.45-.01-.85.07-1.21.23s-.67.43-.93.81c-.27.38-.46.9-.58 1.58l-3.04 16.9c-.23 1.26-.24 2.36-.04 3.31.2.95.57 1.75 1.11 2.42.54.66 1.23 1.2 2.07 1.61.84.42 1.78.72 2.84.91 1.25.23 2.37.25 3.34.08.97-.17 1.81-.51 2.51-1s1.27-1.12 1.71-1.89c.43-.77.74-1.65.92-2.64l3.1-17.23c.11-.63.11-1.16-.01-1.58-.12-.42-.33-.76-.61-1.03s-.64-.47-1.06-.62c-.42-.14-.87-.26-1.35-.34l-.55-.1.33-1.82L279 6.32l-.33 1.82-.57-.1c-.48-.09-.942-.137-1.393-.14-.45-.01-.858.07-1.21.23-.36.16-.67.43-.93.8-.27.373-.46.9-.58 1.575l-3.088 17.15c-.26 1.432-.72 2.69-1.39 3.75-.67 1.07-1.52 1.92-2.56 2.555-1.04.636-2.26 1.046-3.66 1.23-1.4.185-2.96.12-4.68-.19zm42.323 12.17l-6.346-29.578-7.274 19.002c-.246.642-.354 1.19-.322 1.65.04.456.16.845.39 1.168.23.322.53.596.92.822.39.225.81.426 1.27.6l.54.207-.66 1.726-10.31-3.95.66-1.724.53.2c.47.18.92.313 1.36.403.43.08.85.08 1.23-.01s.74-.3 1.07-.62c.32-.32.61-.81.85-1.45l7.72-20.15c.23-.61.33-1.12.29-1.56-.04-.44-.17-.82-.4-1.14-.23-.32-.54-.59-.92-.81-.38-.22-.8-.41-1.26-.59l-.52-.2.66-1.73 7.53 2.88L304 40.64l6.97-18.2c.23-.6.324-1.12.285-1.56-.04-.44-.18-.82-.41-1.13-.23-.32-.54-.59-.92-.81-.39-.22-.81-.42-1.26-.59l-.545-.21.66-1.73 10.32 3.94-.66 1.726-.53-.2c-.47-.18-.92-.31-1.354-.4-.43-.09-.84-.09-1.23 0s-.74.296-1.06.617c-.32.325-.604.806-.85 1.45l-9.44 24.66zm25.985 14.367c-2.172-1.337-3.863-2.832-5.074-4.486-1.21-1.654-1.98-3.413-2.305-5.278-.33-1.864-.23-3.806.29-5.825.52-2.01 1.41-4.05 2.68-6.12 1.25-2.02 2.66-3.71 4.25-5.05 1.59-1.34 3.31-2.27 5.16-2.8 1.84-.53 3.79-.62 5.84-.29 2.04.34 4.15 1.17 6.31 2.5 1.39.86 2.53 1.71 3.43 2.56.9.85 1.58 1.68 2.03 2.48.45.81.69 1.57.72 2.29.02.73-.15 1.39-.51 1.98-.25.41-.57.71-.95.92-.38.21-.8.34-1.25.37-.45.04-.93-.01-1.42-.15-.5-.13-.99-.35-1.48-.65.36-.58.63-1.22.81-1.89.18-.68.22-1.37.11-2.07s-.4-1.38-.85-2.06c-.46-.67-1.15-1.29-2.06-1.86-1.59-.97-3.1-1.55-4.54-1.71-1.43-.17-2.81.03-4.13.59-1.32.56-2.59 1.47-3.8 2.74-1.22 1.26-2.4 2.83-3.56 4.71-1.15 1.87-2.01 3.63-2.57 5.28-.56 1.66-.78 3.21-.64 4.65.13 1.45.64 2.79 1.5 4.03.86 1.24 2.15 2.39 3.86 3.44.72.45 1.44.84 2.16 1.18.72.35 1.4.6 2.02.76l3.72-6.04c.34-.54.53-1.04.57-1.47.04-.43-.02-.83-.2-1.18-.17-.35-.43-.67-.76-.96-.34-.29-.71-.56-1.12-.81l-.15-.09.97-1.57 9.73 5.99-.97 1.57-.15-.09c-.36-.22-.71-.39-1.06-.53-.36-.13-.71-.18-1.06-.13-.35.05-.7.21-1.06.49-.36.28-.72.71-1.08 1.3l-4.15 6.73c-1.62-.18-3.18-.55-4.68-1.08-1.51-.54-3.06-1.3-4.67-2.29zm29.702 1.57c.367-.437.73-.758 1.088-.962.36-.204.707-.313 1.048-.328.34-.014.668.05.985.197.32.145.63.342.93.59.29.24.53.504.73.792.2.28.32.6.37.93.05.33 0 .7-.13 1.09-.13.39-.38.81-.75 1.24-.36.43-.72.74-1.08.93-.36.19-.71.3-1.05.32-.34.02-.68-.04-1-.18-.32-.14-.62-.33-.91-.57-.29-.25-.54-.52-.73-.81-.19-.3-.31-.61-.35-.96-.04-.34.01-.71.14-1.09.14-.39.38-.79.74-1.22zM58.317 81.906c-.5-.44-.963-.723-1.39-.847-.426-.13-.823-.15-1.19-.05-.368.09-.72.27-1.057.55-.337.27-.66.59-.973.94l-.646.73-1.34-1.19 8.76-9.96 1.35 1.18-.65.73c-.31.35-.58.71-.81 1.07-.23.36-.38.72-.45 1.09-.06.37-.01.75.15 1.14.17.4.48.8.95 1.21L78.8 94.16l2.693-3.06c.413-.47.69-.923.827-1.364.14-.442.178-.87.117-1.284-.06-.41-.207-.81-.437-1.19-.23-.372-.506-.74-.824-1.092l-1.225-1.382 1.46-1.656 5.46 5.08-15.85 18.03-5.73-4.77 1.46-1.66 1.52 1.055c.39.27.79.492 1.2.667.41.177.82.27 1.24.285.42.01.84-.09 1.26-.28.43-.2.85-.54 1.27-1.02l2.74-3.11zm-14.15 9.81l1.468 1.026-.31.444c-.278.398-.51.79-.695 1.177-.184.387-.28.772-.288 1.158-.01.39.105.77.33 1.15.227.38.613.76 1.16 1.14l16.998 11.87c.54.38 1.03.62 1.463.7.434.08.83.06 1.19-.08.358-.14.687-.36.985-.67.3-.31.59-.66.867-1.06l.31-.44 1.466 1.03-7.1 10.17-1.47-1.02.33-.46c.27-.38.5-.77.69-1.17.19-.39.29-.77.29-1.15 0-.38-.1-.76-.33-1.15-.22-.38-.6-.76-1.15-1.14l-17-11.87c-.54-.38-1.03-.61-1.47-.69-.43-.07-.83-.05-1.19.09-.35.14-.68.36-.98.67-.3.32-.59.67-.86 1.05l-.32.46-1.46-1.02zm-13.42 24.764l-3.913 7.23c-.323.6-.516 1.154-.58 1.664-.062.51-.03.982.1 1.414.128.433.335.83.622 1.19s.622.682 1.003.968l1.47 1.128-1.06 1.96-6.42-3.803 10.88-20.1 1.57.86-.26.48c-.23.42-.41.83-.56 1.23-.15.41-.21.79-.19 1.17.02.37.15.74.4 1.08.24.35.64.67 1.19.97l18.42 9.96c.58.32 1.1.49 1.54.53.44.03.83-.04 1.17-.22.34-.18.64-.44.9-.77.26-.34.51-.72.74-1.15l.26-.48 1.57.85-10.22 18.9-6.66-3.36 1.05-1.94 1.71.69c.44.18.88.3 1.33.36.44.06.88.04 1.3-.07.42-.11.82-.32 1.2-.63s.72-.74 1.02-1.3l3.41-6.3-9.98-5.4-4.89 9.04-1.83-.99 4.89-9.05zM15.5 159.023c-1.315.29-2.357.655-3.126 1.1-.765.445-1.303 1.09-1.612 1.94l-.044.116-1.68-.62.205-.57c.457-1.26.875-2.27 1.258-3.03.39-.77.81-1.39 1.28-1.86.47-.47 1.01-.82 1.62-1.04.62-.23 1.39-.43 2.31-.61l10.99-2.14 1.21-3.33-8.25-3c-.58-.22-1.09-.3-1.51-.26-.42.04-.78.18-1.07.42-.29.23-.54.53-.74.91-.2.37-.39.78-.55 1.23l-.19.52-1.68-.62 4.24-11.66 1.68.61-.18.51c-.16.44-.28.87-.37 1.29-.08.42-.09.81-.02 1.18s.26.7.56 1.01c.3.31.74.56 1.33.78L41 149.12c.588.218 1.09.3 1.516.258.426-.05.79-.186 1.09-.415.31-.227.56-.53.766-.906.203-.375.385-.785.547-1.23l.18-.51 1.68.61-3.92 10.78c-1.27 3.47-2.85 5.82-4.75 7.047-1.9 1.23-4.15 1.37-6.73.43-1.07-.39-1.95-.906-2.62-1.54-.68-.64-1.21-1.346-1.59-2.12-.38-.776-.64-1.586-.78-2.43-.14-.85-.2-1.667-.17-2.457zm14.272-9.337l-1.025 2.817c-.426 1.173-.65 2.198-.675 3.076-.025.87.14 1.64.49 2.3.35.66.88 1.23 1.59 1.72.708.48 1.584.92 2.627 1.3 1.07.39 2.02.61 2.85.66.83.05 1.57-.09 2.23-.41.65-.33 1.23-.84 1.73-1.55.5-.71.96-1.64 1.37-2.77l.99-2.72zM16.04 176.404l-4.068-2.47c-.304-.19-.606-.348-.914-.48-.306-.133-.574-.222-.806-.268-.708-.142-1.27-.017-1.688.373-.418.39-.722 1.05-.91 1.99l-.19.96-1.757-.35 2.043-10.21 1.752.35-.16.79c-.08.41-.104.76-.074 1.07.03.3.146.59.345.87.2.28.487.57.868.86.38.29.88.63 1.5 1.03l22.97 14.24-.65 3.26-27.76 4.28c-.46.07-.86.17-1.18.28-.32.11-.59.27-.8.46-.22.2-.39.44-.52.72s-.23.63-.31 1.04l-.11.55-1.76-.35 2.3-11.5 1.76.35-.19.96c-.33 1.67.17 2.64 1.5 2.91.23.04.48.06.73.05.26-.01.56-.04.89-.09l5.01-.74zm7.886 9.52c1.325-.188 2.566-.354 3.72-.498 1.154-.144 2.26-.232 3.31-.26-.483-.198-.948-.407-1.39-.63-.445-.223-.896-.46-1.356-.706-.46-.25-.94-.522-1.44-.82-.5-.298-1.05-.635-1.655-1.01l-7.13-4.38-1.887 9.434zm-18.524 39.04c-1.168.67-2.05 1.333-2.65 1.987-.6.66-.918 1.44-.958 2.34l-.01.13-1.788-.08.028-.6c.057-1.33.154-2.42.29-3.27.133-.85.353-1.56.657-2.15.31-.58.72-1.07 1.24-1.47.52-.4 1.19-.82 2.02-1.27l9.84-5.33.16-3.53-8.77-.39c-.62-.03-1.13.04-1.52.21-.39.17-.68.41-.89.72-.21.31-.35.68-.43 1.1-.08.42-.13.87-.15 1.34l-.03.56-1.78-.08.55-12.39 1.79.08-.02.54c-.02.47-.01.92.04 1.35.05.43.16.81.34 1.13.18.33.46.6.83.8.38.21.87.32 1.5.35l21.09.93c.63.03 1.14-.04 1.52-.21.39-.17.7-.41.92-.72.22-.31.38-.67.46-1.09.08-.42.13-.86.15-1.34l.03-.54 1.79.08-.51 11.46c-.16 3.69-.96 6.41-2.41 8.15-1.44 1.74-3.54 2.55-6.29 2.43-1.13-.05-2.12-.28-2.96-.68-.83-.41-1.55-.92-2.15-1.54-.6-.62-1.09-1.32-1.47-2.08-.38-.77-.68-1.53-.9-2.29L5.45 225zm10.814-13.19l-.132 2.994c-.055 1.248.036 2.294.278 3.137.24.845.626 1.53 1.16 2.052.53.524 1.21.91 2.03 1.163.824.252 1.79.403 2.898.45 1.137.052 2.11-.024 2.917-.223.807-.2 1.475-.554 2.004-1.06.54-.503.93-1.17 1.2-1.998.27-.83.43-1.85.48-3.06l.13-2.89zm14.816 42.47L3.02 240.88l1.048 10.694c.062.636.208 1.158.436 1.57.23.41.515.728.858.96.343.23.732.395 1.168.493.435.096.89.15 1.366.16l1.844.026.215 2.198-7.44.52-2.118-21.59 1.7-.16 28.05 13.32-.906-9.22c-.06-.62-.2-1.13-.43-1.53-.23-.4-.51-.72-.86-.95-.34-.23-.73-.39-1.16-.49-.43-.1-.89-.15-1.36-.16l-1.84-.03-.21-2.19 7.44-.52 1.98 20.13zm-19.23 23.96c-.646.154-1.144.37-1.49.65-.347.272-.59.587-.726.94-.136.355-.187.75-.154 1.185.034.43.105.88.218 1.33l.227.95-1.74.42-3.102-12.89 1.74-.42.23.95c.11.45.243.88.404 1.28.16.39.37.73.63.99s.6.44 1.02.53c.41.09.92.06 1.53-.08l23.01-5.54-.96-3.97c-.15-.61-.36-1.1-.64-1.47-.28-.37-.61-.65-.99-.84-.38-.19-.78-.3-1.23-.33-.45-.03-.9-.02-1.37.04l-1.84.2-.52-2.15 7.29-1.54 5.61 23.33-7.2 1.95-.52-2.14 1.73-.63c.44-.16.86-.36 1.24-.6s.69-.52.94-.85c.24-.33.41-.73.49-1.19.08-.47.05-1.01-.1-1.63l-.97-4.03zm.045 18.37l1.664-.66.2.5c.18.45.38.86.61 1.23.22.368.49.66.81.878.32.216.7.335 1.14.354.44.02.97-.095 1.59-.34l19.27-7.655c.62-.24 1.09-.52 1.39-.84.31-.31.5-.66.59-1.04.09-.37.08-.77-.01-1.19-.09-.42-.23-.85-.41-1.3l-.2-.5 1.67-.66 4.58 11.53-1.66.66-.21-.52c-.17-.44-.37-.84-.58-1.21-.21-.37-.48-.66-.79-.88-.31-.22-.68-.34-1.1-.38-.42-.03-.92.07-1.5.3l-21.96 8.72 3.1 7.82c.24.6.54 1.06.92 1.4.38.33.8.57 1.25.7.45.14.92.2 1.4.17.49-.02.95-.09 1.4-.2l3.11-.79.82 2.07-8.62 3.11zm12.056 28.35l1.578-.845.26.47c.23.42.48.81.74 1.15.27.34.57.6.91.78.34.18.73.25 1.17.22.44-.03.96-.21 1.54-.52l18.28-9.79c.59-.32 1.02-.65 1.29-1s.43-.72.47-1.1c.04-.39-.01-.78-.15-1.19-.14-.41-.32-.82-.55-1.25l-.26-.48 1.58-.84 5.85 10.93-1.58.84-.26-.49c-.22-.42-.46-.8-.73-1.15-.26-.35-.56-.61-.9-.78-.34-.18-.73-.25-1.17-.23-.44.03-.96.2-1.55.51l-18.27 9.78c-.58.31-1.01.65-1.28 1-.26.36-.42.72-.46 1.1-.04.38.01.77.15 1.18.15.41.33.82.55 1.24l.27.49-1.58.84zm43.094 11.836c.827 1.2 1.445 2.31 1.855 3.334.41 1.022.64 1.95.69 2.782.053.833-.06 1.56-.34 2.183-.28.62-.7 1.12-1.26 1.51-.376.26-.77.41-1.178.47-.408.05-.813.02-1.214-.11-.4-.13-.785-.34-1.155-.63-.37-.3-.704-.66-1.004-1.1.55-.38 1.05-.82 1.48-1.34.44-.52.77-1.08.97-1.7.21-.62.26-1.28.17-1.99s-.39-1.44-.92-2.21c-.91-1.33-1.93-2.29-3.05-2.88-1.12-.59-2.35-.86-3.68-.8-1.33.06-2.77.43-4.31 1.1-1.54.68-3.2 1.62-4.96 2.83-1.56 1.08-2.9 2.2-4.01 3.37-1.11 1.17-1.93 2.37-2.45 3.61-.52 1.23-.72 2.49-.6 3.76.12 1.27.63 2.55 1.52 3.84.59.86 1.2 1.56 1.82 2.1.62.54 1.24.97 1.86 1.29.62.31 1.24.54 1.87.67.62.13 1.23.22 1.83.25.01.28-.05.55-.18.83-.13.27-.37.53-.72.78-.45.3-1.01.46-1.68.48-.67.02-1.41-.16-2.21-.51-.8-.36-1.65-.93-2.55-1.71-.9-.78-1.79-1.82-2.69-3.13-1.2-1.75-1.95-3.49-2.25-5.24-.3-1.75-.19-3.46.33-5.14.51-1.68 1.41-3.29 2.68-4.84 1.28-1.55 2.88-2.99 4.81-4.32 1.9-1.31 3.8-2.26 5.71-2.87 1.91-.61 3.76-.83 5.53-.66 1.79.16 3.47.73 5.07 1.7s3.04 2.38 4.31 4.23zm-2.513 44.91l1.294-1.236.388.407c.336.35.675.66 1.018.92.343.26.7.43 1.07.51.372.08.768.05 1.19-.1.42-.14.87-.44 1.352-.9l7.225-6.9-9.58-10.02-7.22 6.91c-.48.46-.8.9-.96 1.31-.16.42-.21.81-.15 1.19.06.38.22.74.46 1.1.25.36.54.71.86 1.05l.39.41-1.29 1.24-8.57-8.97 1.3-1.23.37.39c.34.35.68.66 1.02.92.35.26.7.43 1.08.51.38.08.77.05 1.19-.1.42-.14.87-.45 1.35-.91l15.11-14.44c.45-.43.75-.85.9-1.24.15-.4.19-.79.12-1.16-.07-.37-.23-.74-.47-1.09-.24-.35-.53-.69-.86-1.03l-.37-.39 1.3-1.23 8.58 8.97-1.29 1.24-.38-.4c-.33-.34-.66-.64-1.01-.91-.35-.26-.71-.43-1.08-.51-.37-.07-.77-.04-1.19.1-.42.15-.87.45-1.35.91l-6.28 5.9 9.58 10.03 6.23-5.953c.48-.46.81-.9.97-1.31.16-.415.21-.81.15-1.183s-.21-.74-.45-1.09c-.24-.354-.53-.706-.862-1.06l-.387-.405 1.294-1.237 8.57 8.973-1.3 1.237-.37-.39c-.34-.35-.68-.65-1.02-.91-.35-.26-.7-.43-1.08-.51-.38-.08-.77-.05-1.19.1-.42.15-.87.45-1.35.91l-15.15 14.45c-.46.43-.75.85-.9 1.25-.15.4-.18.78-.1 1.15.08.37.24.72.49 1.07.25.35.53.7.86 1.04l.37.39-1.3 1.24zm23.652 18.273L94.7 404.9c.542.41 1.06.684 1.555.824.494.14.965.177 1.413.115.447-.07.87-.21 1.27-.44.398-.23.767-.51 1.108-.85l1.337-1.29 1.778 1.34-4.72 5.77L80.2 396.6l1.08-1.43.43.326c.378.283.754.53 1.13.732.375.205.75.327 1.12.365.373.037.748-.04 1.127-.23.38-.19.76-.538 1.137-1.037l12.62-16.71c.4-.53.65-1.012.75-1.44.098-.43.085-.827-.04-1.19-.124-.365-.335-.703-.63-1.013-.297-.312-.638-.613-1.026-.906l-.432-.323 1.08-1.43 17.148 12.952-4.326 6.07-1.76-1.33.937-1.588c.24-.41.424-.832.55-1.267.13-.43.17-.86.124-1.3-.05-.43-.19-.86-.44-1.28-.25-.42-.63-.82-1.14-1.21l-5.72-4.32-6.84 9.06 8.21 6.2-1.26 1.66-8.21-6.2zm47.774 30.683l.726-1.636.514.23c.444.195.874.35 1.288.458.416.107.81.128 1.18.058.374-.07.728-.25 1.063-.542.34-.292.64-.74.91-1.35l4.06-9.127-12.66-5.635-4.06 9.128c-.27.61-.4 1.136-.39 1.58.01.442.11.825.31 1.15.2.323.48.603.85.842.37.238.76.452 1.2.646l.52.228-.73 1.635-11.33-5.04.73-1.63.5.22c.45.2.87.35 1.29.46.41.11.81.13 1.19.06.38-.06.73-.25 1.06-.54.33-.29.63-.74.9-1.35l8.49-19.09c.25-.57.37-1.06.36-1.49-.01-.42-.13-.8-.33-1.11-.2-.32-.49-.59-.85-.82-.36-.23-.76-.44-1.19-.63l-.49-.22.73-1.63 11.33 5.04-.73 1.64-.51-.23c-.43-.19-.85-.34-1.28-.45-.42-.11-.81-.13-1.19-.06-.37.07-.72.25-1.06.54-.33.3-.63.75-.9 1.35l-3.5 7.88 12.66 5.63 3.5-7.87c.27-.61.4-1.13.39-1.58-.01-.44-.11-.83-.31-1.15-.2-.32-.48-.6-.83-.84s-.76-.45-1.2-.65l-.51-.23.73-1.63 11.34 5.04-.73 1.64-.49-.22c-.44-.2-.87-.35-1.29-.46-.41-.11-.81-.13-1.19-.06-.37.07-.73.25-1.06.54-.33.3-.62.75-.89 1.35l-8.51 19.13c-.25.58-.37 1.07-.35 1.5.01.42.13.79.34 1.1.21.31.5.58.86.81.36.23.76.44 1.19.63l.49.22-.72 1.63zm50.602-.146c-.567 2.275-1.368 4.278-2.4 6.007-1.036 1.732-2.27 3.125-3.707 4.182-1.438 1.05-3.055 1.74-4.852 2.07-1.798.32-3.74.22-5.827-.3-2.194-.55-4.016-1.39-5.464-2.52-1.447-1.14-2.544-2.51-3.287-4.11-.744-1.6-1.152-3.41-1.22-5.42-.07-2.02.182-4.17.753-6.46.57-2.29 1.358-4.3 2.363-6.03 1.01-1.73 2.21-3.12 3.62-4.17 1.41-1.05 3.02-1.73 4.85-2.04 1.83-.31 3.84-.19 6.03.35 2.09.52 3.84 1.34 5.27 2.46 1.42 1.12 2.52 2.48 3.29 4.08.78 1.6 1.21 3.4 1.31 5.41.1 2.01-.13 4.16-.71 6.46zm-21.43-5.353c-.51 2.048-.816 3.913-.914 5.6-.1 1.683.05 3.165.446 4.443.396 1.28 1.055 2.346 1.98 3.198.923.854 2.152 1.472 3.687 1.855 1.54.383 2.92.415 4.13.096 1.22-.32 2.3-.95 3.25-1.9.95-.95 1.77-2.19 2.47-3.72.7-1.54 1.3-3.33 1.82-5.38.51-2.05.82-3.91.93-5.6.11-1.68-.03-3.16-.43-4.43-.39-1.27-1.04-2.33-1.95-3.17-.91-.85-2.13-1.46-3.67-1.84-1.53-.39-2.91-.42-4.13-.11-1.22.31-2.31.93-3.26 1.86-.95.93-1.78 2.16-2.49 3.7-.7 1.53-1.31 3.32-1.82 5.37zm44.128-7.8c1.448.147 2.696.397 3.74.747 1.046.352 1.902.777 2.57 1.277.667.51 1.146 1.06 1.44 1.68.293.62.405 1.26.336 1.94-.047.46-.18.86-.405 1.2-.22.35-.51.64-.87.86-.36.22-.77.38-1.23.47-.46.1-.95.12-1.48.06.07-.66.05-1.32-.06-1.99-.1-.66-.33-1.28-.67-1.83-.34-.56-.8-1.03-1.4-1.42-.59-.39-1.35-.63-2.28-.72-1.6-.16-2.99-.01-4.17.47-1.18.48-2.18 1.24-2.99 2.29-.82 1.06-1.47 2.39-1.95 4.01-.48 1.62-.83 3.49-1.05 5.62-.19 1.9-.2 3.65-.03 5.25.17 1.61.56 3.01 1.16 4.21.61 1.2 1.43 2.17 2.48 2.9s2.35 1.18 3.91 1.34c1.04.11 1.96.1 2.78-.02.82-.12 1.54-.31 2.19-.58.64-.27 1.22-.6 1.72-.98.51-.39.97-.79 1.37-1.23.22.18.4.41.52.68.13.28.17.64.12 1.06-.05.54-.29 1.07-.72 1.59-.42.53-1.03.98-1.82 1.36s-1.77.66-2.95.84c-1.17.18-2.55.19-4.12.03-2.11-.21-3.93-.77-5.45-1.68-1.53-.91-2.76-2.1-3.7-3.58-.94-1.48-1.59-3.2-1.95-5.18-.36-1.97-.41-4.13-.18-6.46.24-2.29.74-4.36 1.52-6.21.77-1.85 1.8-3.39 3.08-4.64 1.28-1.25 2.81-2.17 4.58-2.76 1.78-.59 3.78-.76 6.02-.54zm32.294 30.798l-.112-1.785.562-.035c.483-.03.935-.095 1.353-.19.418-.095.776-.26 1.074-.496.3-.24.53-.56.69-.97.17-.42.23-.96.18-1.62l-.63-9.97-13.83.87.63 9.97c.04.66.17 1.19.38 1.58.21.39.48.68.81.88.33.19.71.31 1.14.35.44.04.89.05 1.36.01l.56-.04.12 1.78-12.38.78-.11-1.79.54-.04c.49-.03.94-.09 1.36-.19.42-.1.78-.26 1.09-.49.31-.24.54-.56.69-.97.15-.42.21-.95.17-1.62l-1.32-20.85c-.03-.62-.16-1.12-.37-1.49-.21-.37-.48-.65-.81-.84-.33-.19-.71-.3-1.14-.34-.42-.03-.87-.04-1.34-.01l-.54.04-.11-1.79 12.38-.78.11 1.78-.56.04c-.47.03-.92.09-1.34.19-.42.1-.78.26-1.08.49-.3.23-.52.56-.69.97-.16.41-.22.95-.18 1.61l.55 8.6 13.84-.87-.55-8.6c-.04-.66-.17-1.19-.38-1.58-.21-.39-.48-.68-.8-.88-.32-.19-.7-.31-1.13-.35-.42-.04-.88-.05-1.36-.02l-.56.03-.11-1.79 12.38-.78.11 1.79-.54.03c-.48.03-.93.09-1.35.19-.42.09-.78.26-1.08.49-.3.23-.53.56-.69.97-.15.41-.21.95-.16 1.62l1.32 20.89c.04.62.17 1.12.38 1.48.22.37.48.64.82.81.33.17.71.27 1.14.31.427.03.876.04 1.347.01l.54-.04.11 1.78zm29.488-3.828c-1.358.297-2.585.413-3.687.354-1.1-.05-2.054-.26-2.862-.62-.81-.35-1.47-.86-1.98-1.51s-.86-1.41-1.05-2.27c-.182-.84-.068-1.57.34-2.2.412-.63 1.1-1.05 2.063-1.26.23.86.543 1.67.94 2.42.4.75.887 1.39 1.468 1.9.58.52 1.258.88 2.028 1.1.772.22 1.646.22 2.622.01 1.872-.4 3.236-1.17 4.09-2.3.857-1.13 1.1-2.54.73-4.24-.165-.76-.42-1.4-.764-1.94-.344-.53-.82-.99-1.43-1.38s-1.375-.72-2.294-.99c-.92-.27-2.044-.53-3.374-.77-1.404-.24-2.652-.57-3.748-.96-1.093-.39-2.04-.89-2.84-1.49-.797-.6-1.45-1.32-1.962-2.16-.507-.84-.888-1.83-1.134-2.97-.26-1.19-.265-2.31-.015-3.34.25-1.03.714-1.96 1.388-2.78.68-.82 1.53-1.52 2.57-2.1 1.04-.58 2.22-1.01 3.54-1.3 1.25-.27 2.38-.38 3.4-.33 1.02.04 1.91.21 2.67.5.76.29 1.38.68 1.84 1.17.47.49.77 1.04.91 1.65.2.9.05 1.64-.44 2.22-.49.59-1.24.99-2.24 1.2-.14-.65-.36-1.27-.65-1.87-.29-.59-.68-1.1-1.15-1.52-.47-.41-1.04-.71-1.71-.89-.66-.18-1.43-.18-2.32.02-.8.17-1.49.44-2.07.8-.58.36-1.04.8-1.39 1.31-.34.51-.57 1.08-.67 1.71-.1.64-.07 1.31.08 2.03.18.83.45 1.53.81 2.12.36.58.84 1.07 1.46 1.47.62.4 1.39.73 2.32 1.01.93.27 2.05.52 3.36.75 1.33.24 2.53.53 3.61.88s2.02.79 2.84 1.33c.82.54 1.49 1.2 2.03 1.97.54.77.93 1.69 1.16 2.76.29 1.32.3 2.55.05 3.69-.25 1.15-.75 2.17-1.49 3.09-.74.92-1.7 1.7-2.88 2.34-1.18.65-2.55 1.14-4.1 1.48zm21.292-38.725c1.372-.492 2.604-.805 3.697-.94 1.1-.135 2.06-.12 2.87.043.82.162 1.5.46 2.03.89.53.427.91.96 1.14 1.602.16.432.21.853.16 1.262-.05.4-.19.79-.42 1.14-.22.35-.53.67-.9.95-.37.28-.81.51-1.31.69-.22-.63-.53-1.22-.91-1.78s-.85-1.01-1.4-1.37c-.55-.36-1.17-.58-1.88-.68-.7-.09-1.49.02-2.37.33-1.51.54-2.7 1.28-3.56 2.22-.85.94-1.43 2.05-1.71 3.36-.28 1.3-.3 2.79-.04 4.46s.75 3.51 1.48 5.52c.65 1.79 1.39 3.37 2.24 4.75.85 1.37 1.8 2.47 2.87 3.29 1.06.82 2.23 1.33 3.49 1.54 1.27.21 2.63.05 4.11-.48.98-.35 1.81-.76 2.5-1.21.68-.46 1.26-.95 1.72-1.47.46-.52.84-1.07 1.13-1.64.29-.57.53-1.14.71-1.7.27.06.53.19.76.39.23.2.42.5.57.9.19.51.2 1.09.04 1.74-.15.65-.51 1.32-1.06 2.01s-1.31 1.36-2.3 2.03c-.98.67-2.22 1.27-3.71 1.81-1.99.71-3.88.99-5.65.83-1.76-.16-3.39-.7-4.88-1.63-1.49-.92-2.82-2.2-3.99-3.83-1.17-1.62-2.15-3.54-2.95-5.75-.78-2.17-1.22-4.25-1.31-6.25-.1-2 .16-3.84.77-5.52.62-1.68 1.6-3.17 2.95-4.47 1.35-1.29 3.08-2.32 5.2-3.08zm42.3 14.165l-.863-1.57.5-.27c.43-.234.81-.483 1.15-.748.34-.27.59-.57.76-.91.17-.34.24-.73.21-1.18-.03-.45-.2-.96-.52-1.54l-4.82-8.76-12.15 6.68 4.82 8.75c.32.58.66 1.01 1.02 1.27s.73.41 1.11.45c.38.04.77-.02 1.18-.16.41-.15.83-.34 1.24-.56l.49-.28.87 1.57-10.87 5.97-.86-1.57.48-.26c.43-.24.81-.49 1.15-.75.34-.27.6-.57.77-.91.18-.35.25-.73.21-1.18-.03-.44-.21-.95-.53-1.54l-10.07-18.31c-.3-.55-.62-.95-.97-1.19s-.71-.38-1.09-.41c-.38-.03-.77.03-1.17.18s-.81.34-1.22.56l-.47.26-.86-1.57 10.87-5.98.87 1.57-.5.27c-.41.23-.79.48-1.13.75-.35.27-.6.57-.77.91-.17.34-.23.73-.21 1.17.03.44.21.95.53 1.54l4.16 7.55 12.15-6.69-4.15-7.55c-.32-.58-.66-1.01-1.02-1.27-.35-.26-.72-.41-1.1-.45-.38-.04-.77.01-1.17.16-.4.14-.82.33-1.24.56l-.49.27-.86-1.57 10.87-5.98.86 1.57-.47.26c-.43.23-.81.48-1.144.74-.333.26-.59.57-.77.91-.18.34-.25.73-.21 1.17.037.44.21.95.537 1.54l10.1 18.35c.3.55.62.94.97 1.19.35.24.71.37 1.09.39.37.02.76-.05 1.16-.2.4-.15.81-.34 1.22-.57l.47-.26.86 1.57zm29.453-19.422c-1.314 1.045-2.604 1.844-3.867 2.396-1.262.56-2.496.82-3.698.79-1.2-.02-2.37-.36-3.507-1.01-1.137-.64-2.244-1.65-3.326-3.01l-10.31-12.95c-.39-.49-.78-.82-1.16-1-.39-.18-.77-.25-1.15-.22s-.76.16-1.13.38c-.37.22-.74.47-1.11.77l-.43.34-1.12-1.4 9.71-7.72 1.11 1.4-.44.35c-.37.3-.7.6-1 .93-.3.32-.5.67-.61 1.03-.11.36-.11.76-.01 1.19.1.43.36.91.78 1.43l10.37 13c.77.97 1.56 1.68 2.38 2.14.82.46 1.64.7 2.47.73.83.03 1.66-.12 2.5-.47.84-.34 1.66-.84 2.47-1.49.97-.77 1.7-1.56 2.19-2.38.49-.82.78-1.64.88-2.47.09-.82 0-1.64-.28-2.46-.29-.81-.73-1.6-1.33-2.35l-10.57-13.28c-.39-.49-.77-.83-1.16-1.01-.38-.19-.76-.26-1.14-.22-.38.03-.75.16-1.12.37-.37.21-.74.47-1.11.76l-.43.34-1.12-1.4 8.38-6.66 1.12 1.4-.44.35c-.37.29-.7.6-1 .92-.3.32-.5.66-.61 1.02-.11.36-.12.76-.01 1.19.1.43.36.91.77 1.43l10.51 13.22c.88 1.11 1.5 2.24 1.85 3.41.35 1.17.42 2.33.22 3.49-.2 1.16-.68 2.31-1.44 3.45-.76 1.14-1.81 2.24-3.13 3.29zm16.347-14.525l-1.31-1.22.368-.397c.33-.356.614-.713.853-1.07.237-.357.386-.727.446-1.106.06-.38 0-.772-.16-1.18-.17-.407-.5-.837-.99-1.29L364.4 365.4c-.487-.456-.94-.753-1.36-.896-.417-.143-.81-.17-1.188-.082-.376.087-.73.262-1.07.524-.34.263-.676.572-1.01.928l-.366.397-1.313-1.22 8.458-9.08 1.32 1.22-.38.41c-.32.35-.6.7-.84 1.05-.24.35-.39.72-.46 1.09-.06.38-.02.77.13 1.16.16.4.46.81.92 1.24l17.31 16.1 5.73-6.16c.44-.47.73-.94.86-1.43.14-.48.18-.96.11-1.43-.07-.46-.22-.91-.44-1.34-.23-.43-.49-.82-.79-1.17l-2.05-2.47 1.52-1.63 6.51 6.46zm23.95-31.353l4.708-6.74c.39-.558.645-1.087.766-1.587.12-.5.142-.97.063-1.417-.08-.444-.24-.86-.48-1.252-.24-.38-.54-.74-.88-1.07l-1.33-1.28 1.28-1.82 5.95 4.51-13.1 18.73-1.46-1.02.31-.44c.27-.38.5-.77.69-1.15.2-.38.3-.76.33-1.13.02-.37-.07-.74-.27-1.11-.2-.37-.56-.73-1.07-1.09l-17.17-11.99c-.54-.38-1.03-.62-1.47-.7-.43-.09-.83-.06-1.19.08-.35.14-.69.36-.98.67-.3.31-.58.66-.86 1.06l-.31.44-1.46-1.02 12.31-17.62 6.23 4.1-1.26 1.81-1.62-.88c-.42-.22-.85-.39-1.29-.5-.44-.11-.87-.13-1.3-.07-.43.06-.85.22-1.27.49-.41.26-.8.66-1.16 1.18l-4.1 5.87 9.3 6.5 5.89-8.43 1.7 1.19-5.89 8.43zm28.762-48.585l-1.66-.67.21-.52c.182-.452.318-.887.41-1.305.097-.418.1-.813.02-1.183-.085-.37-.278-.72-.582-1.042-.303-.324-.764-.61-1.38-.86l-9.275-3.732-5.18 12.867 9.27 3.733c.62.25 1.15.36 1.59.338.44-.024.82-.14 1.14-.35.31-.21.58-.502.81-.875.22-.373.42-.778.6-1.217l.21-.52 1.66.668-4.64 11.514-1.66-.67.2-.5c.18-.452.32-.886.41-1.305.09-.418.1-.817.02-1.193-.08-.377-.28-.723-.58-1.042-.31-.318-.77-.6-1.39-.85l-19.4-7.808c-.58-.23-1.09-.334-1.51-.303-.43.032-.79.158-1.11.375-.31.22-.58.513-.79.882-.22.37-.41.774-.59 1.21l-.2.504-1.66-.67 4.63-11.514 1.66.67-.21.52c-.18.44-.32.87-.41 1.296-.1.426-.11.822-.02 1.192.08.37.27.717.58 1.04.3.325.76.613 1.38.86l7.99 3.22 5.18-12.867-8-3.22c-.61-.248-1.15-.36-1.59-.337-.44.023-.82.14-1.14.35-.31.21-.58.497-.81.863-.22.37-.42.78-.6 1.23l-.21.52-1.66-.66 4.63-11.51 1.66.67-.2.5c-.18.45-.32.89-.41 1.31-.1.42-.11.82-.02 1.2.08.38.27.73.58 1.04.3.32.76.6 1.38.85l19.43 7.83c.58.24 1.08.34 1.5.31.42-.03.79-.16 1.08-.38.3-.22.56-.52.77-.89.21-.37.41-.77.59-1.21l.2-.5 1.66.67zm-1.386-28.98l4.027 2.54c.3.193.6.36.903.495.305.138.57.232.802.282.707.15 1.27.03 1.694-.35.425-.39.74-1.05.943-1.98l.2-.96 1.75.38-2.22 10.17-1.75-.38.17-.8c.09-.41.12-.77.09-1.07-.03-.31-.14-.6-.33-.89-.19-.29-.48-.58-.85-.88-.38-.3-.87-.65-1.48-1.06l-22.72-14.63.71-3.26 27.82-3.8c.47-.07.86-.16 1.19-.27.32-.11.59-.26.81-.46.22-.19.39-.43.53-.71.13-.29.24-.63.33-1.04l.12-.55 1.75.38-2.5 11.45-1.75-.39.2-.96c.36-1.67-.12-2.65-1.45-2.94-.23-.05-.48-.07-.73-.06-.26.01-.56.03-.89.07l-5.02.65zm-7.72-9.65c-1.328.165-2.57.31-3.728.433-1.156.125-2.26.193-3.313.204.48.2.93.42 1.37.65.44.23.89.47 1.34.73.45.25.93.53 1.42.84.49.31 1.04.65 1.64 1.04l7.05 4.5 2.05-9.4zm24.316-38.62l-25.385 14.67 19.7 1.044c.67.036 1.21-.03 1.62-.196.41-.166.74-.398.97-.7.23-.3.39-.662.49-1.09.1-.426.15-.875.18-1.346l.03-.562 1.79.096-.56 10.688-1.79-.095.03-.54c.03-.48.02-.94-.03-1.36-.05-.42-.17-.8-.37-1.13-.19-.33-.49-.59-.88-.79-.39-.2-.92-.32-1.59-.35l-20.87-1.1c-.62-.03-1.13.04-1.52.2-.39.17-.7.41-.92.72-.22.31-.38.67-.46 1.09-.09.42-.14.87-.16 1.34l-.03.54-1.79-.09.42-7.8 24.34-13.99-18.86-1c-.62-.03-1.13.04-1.52.2-.39.17-.7.41-.92.72-.23.31-.38.68-.46 1.09-.08.42-.14.87-.16 1.34l-.03.56-1.79-.09.56-10.69 1.78.09-.02.54c-.02.49-.01.94.03 1.37.04.43.17.81.36 1.14.2.33.5.6.89.8.39.2.92.32 1.59.35l25.56 1.35zm-2.566-38.015L423.2 209.34l19.586-2.3c.663-.08 1.183-.234 1.56-.467.38-.233.656-.517.833-.853.17-.335.27-.72.29-1.156.02-.436 0-.888-.06-1.357l-.07-.56 1.77-.208 1.25 10.63-1.78.21-.07-.54c-.06-.49-.15-.93-.27-1.35-.12-.42-.31-.77-.56-1.06-.25-.29-.59-.51-1.01-.64-.42-.13-.96-.16-1.63-.08l-20.77 2.44c-.62.07-1.11.22-1.47.45-.36.23-.62.51-.79.86-.17.34-.26.72-.28 1.15-.01.43.01.87.06 1.34l.06.53-1.78.21-.91-7.76 21.63-17.92-18.76 2.2c-.62.07-1.11.22-1.47.45-.35.23-.62.52-.79.86-.17.34-.26.73-.27 1.15-.01.43.01.87.06 1.34l.06.56-1.78.21-1.25-10.64 1.77-.21.06.54c.06.48.15.93.26 1.34.12.41.3.77.55 1.06.25.29.59.5 1.01.63.42.13.96.16 1.62.08l25.42-2.99zm-25.004-37.42c2.25-.663 4.382-.986 6.396-.97 2.018.014 3.842.372 5.482 1.077 1.638.704 3.052 1.75 4.242 3.135 1.188 1.38 2.086 3.11 2.692 5.17.638 2.17.835 4.16.59 5.99-.245 1.82-.87 3.46-1.875 4.91-1.005 1.45-2.355 2.72-4.058 3.79-1.7 1.07-3.682 1.95-5.944 2.61-2.26.66-4.39 1-6.39 1.01-2 .01-3.81-.33-5.42-1.01-1.62-.68-3.02-1.73-4.21-3.15s-2.1-3.21-2.74-5.38c-.6-2.06-.78-3.99-.54-5.78.25-1.8.87-3.43 1.86-4.91.99-1.48 2.33-2.77 4.01-3.87 1.68-1.1 3.66-1.99 5.94-2.66zm6.232 21.185c2.024-.595 3.786-1.276 5.29-2.044 1.502-.767 2.705-1.645 3.608-2.634.9-.99 1.488-2.097 1.754-3.326.268-1.23.18-2.602-.268-4.12-.445-1.517-1.115-2.72-2.006-3.607-.89-.88-1.98-1.5-3.272-1.83-1.293-.33-2.777-.41-4.455-.24-1.68.18-3.53.56-5.55 1.16-2.03.6-3.79 1.28-5.3 2.04-1.51.76-2.71 1.63-3.61 2.61-.9.98-1.48 2.08-1.75 3.29s-.18 2.58.27 4.1c.44 1.52 1.11 2.73 2 3.63.88.9 1.97 1.52 3.26 1.87 1.29.35 2.77.44 4.45.28 1.68-.17 3.53-.55 5.55-1.14zm.686-43.258l-19.96 19.564c-.338.327-.6.634-.785.922-.19.286-.31.572-.36.857-.05.284-.04.58.02.885.07.306.19.646.37 1.023l.24.51-1.62.76-4.99-10.6 1.62-.763.41.885c.36.778.78 1.29 1.26 1.534.48.25 1.03.22 1.67-.08.21-.1.42-.23.62-.39s.42-.36.66-.6l10.53-10.13c.96-.92 1.91-1.78 2.85-2.56s1.83-1.49 2.65-2.15c-1.03.24-2.12.47-3.3.68-1.17.22-2.46.4-3.87.54l-14.26 1.52c-.37.05-.71.11-1.03.18-.32.08-.58.16-.8.26-.67.32-1.05.75-1.14 1.31-.1.56.05 1.27.46 2.12l.41.89-1.62.76-4.43-9.4 1.62-.76.34.74c.18.38.37.69.57.92.2.24.46.41.79.53.32.12.72.18 1.2.19.48.01 1.08-.03 1.81-.11l26.67-2.8zm-16.44-25.647l-4.534-6.86c-.375-.568-.772-1-1.19-1.296-.422-.29-.855-.49-1.297-.58-.44-.09-.89-.09-1.342-.01-.45.09-.89.23-1.32.43l-1.69.77-1.23-1.86 6.38-3.86 12.61 19.07-1.49.99-.3-.45c-.26-.39-.53-.75-.81-1.06-.28-.32-.6-.56-.93-.72-.34-.16-.71-.21-1.14-.15-.42.06-.89.26-1.41.6L394.03 122c-.555.368-.95.738-1.187 1.11-.236.37-.356.75-.36 1.136 0 .385.08.774.26 1.165.176.39.395.79.664 1.2l.3.45-1.494.99-11.85-17.92 6.104-4.28 1.217 1.84-1.41 1.18c-.36.31-.676.64-.94 1.01-.265.37-.447.76-.55 1.19-.1.43-.105.88-.015 1.36s.31.99.66 1.52l3.95 5.98 9.46-6.25-5.67-8.58 1.74-1.15 5.67 8.58zm-29.69-32.9c.373-1.295.547-2.385.52-3.273-.023-.886-.336-1.667-.934-2.342l-.083-.094 1.34-1.187.4.46c.884 1 1.572 1.85 2.065 2.55.494.71.835 1.37 1.023 2 .188.63.235 1.27.142 1.92-.092.65-.28 1.42-.56 2.32l-3.357 10.68 2.348 2.65 6.575-5.83c.468-.41.782-.82.944-1.21.162-.39.21-.77.142-1.14-.07-.37-.22-.73-.45-1.09-.24-.36-.51-.71-.82-1.06l-.38-.42 1.34-1.19 8.23 9.29-1.34 1.19-.36-.4c-.32-.35-.64-.67-.96-.94-.33-.27-.67-.46-1.03-.57-.36-.11-.74-.11-1.15.01-.41.11-.85.38-1.32.79l-15.8 14.01c-.47.41-.78.82-.95 1.21-.16.39-.22.78-.16 1.15.06.38.2.75.43 1.11.23.36.51.71.82 1.07l.36.41-1.34 1.19-7.61-8.58c-2.45-2.76-3.76-5.27-3.94-7.53-.18-2.25.76-4.29 2.82-6.12.85-.75 1.72-1.27 2.6-1.57.88-.29 1.76-.42 2.62-.38.86.03 1.7.19 2.51.47.81.28 1.55.62 2.24 1.02zm1.41 17.003l-1.987-2.244c-.83-.935-1.624-1.622-2.385-2.06-.76-.44-1.514-.662-2.26-.668-.75-.005-1.504.188-2.27.58-.767.39-1.565.954-2.396 1.69-.852.756-1.498 1.487-1.938 2.193-.44.71-.676 1.43-.706 2.16-.03.73.15 1.49.535 2.27s.98 1.63 1.78 2.53l1.92 2.17zM29.777 197.687c-.463-.13-.836-.295-1.118-.498-.29-.21-.49-.44-.62-.69-.13-.26-.2-.53-.2-.83 0-.3.04-.6.13-.91.08-.3.2-.58.35-.83.15-.25.35-.46.59-.61.24-.15.53-.25.88-.28.34-.04.75.01 1.21.14.45.12.81.29 1.09.5.27.21.47.44.61.69.13.25.2.53.21.82.01.29-.04.59-.12.89-.09.31-.21.59-.37.84s-.36.45-.61.6c-.25.15-.54.24-.88.27-.34.03-.74-.02-1.19-.14zm4.295-17.62c-.474-.087-.86-.22-1.157-.398-.298-.18-.52-.39-.673-.64-.15-.25-.238-.51-.264-.81-.024-.29-.01-.6.052-.92.058-.31.15-.6.28-.86.128-.27.306-.49.533-.66.23-.17.514-.29.857-.35.343-.07.75-.06 1.225.03.462.08.838.22 1.128.4.29.18.515.39.67.64.157.24.252.51.28.8.033.29.02.59-.038.9-.06.32-.156.61-.29.87-.136.26-.32.48-.553.65-.233.17-.52.28-.854.34-.336.06-.735.05-1.196-.04z"/><path d="M155.865 346.355v-1.26h2.005c.342 0 .663-.025.96-.073.298-.05.556-.15.777-.3.218-.152.394-.37.527-.653.13-.29.197-.66.197-1.13v-15.76c-.38.46-.74.89-1.08 1.27-.34.38-.67.71-.98.98-.31.27-.62.49-.91.64-.3.15-.59.23-.88.23-.44 0-.8-.15-1.08-.45-.28-.3-.42-.69-.42-1.17.31-.08.61-.17.92-.29.31-.12.64-.26.99-.44s.73-.4 1.13-.66.86-.57 1.36-.93l2.11-1.56h1.92v18.11c0 .47.06.84.19 1.13.13.28.3.5.53.65.23.15.49.25.78.3.3.04.62.07.96.07h1.47v1.26zm19.27 0l7.075-18.99h-7.88c-1.073 0-1.655.51-1.743 1.526l-.117 1.5h-1.26l.147-5.42h13.416v.87l-7.38 20.53h-2.257zm95.483 0l7.075-18.99h-7.88c-1.073 0-1.655.51-1.743 1.526l-.118 1.5h-1.26l.147-5.42h13.41v.87l-7.38 20.53h-2.26zm12.156-5.405c0-.725.113-1.36.344-1.906.23-.545.55-1.03.96-1.458.41-.427.892-.812 1.45-1.155.555-.34 1.16-.67 1.814-.98-.565-.32-1.09-.66-1.568-1.04s-.887-.78-1.23-1.23c-.34-.44-.608-.93-.798-1.46-.19-.53-.285-1.1-.285-1.72 0-.69.13-1.35.37-1.99.25-.64.63-1.21 1.15-1.7.52-.49 1.19-.89 2.02-1.19.83-.3 1.82-.45 2.97-.45.94 0 1.77.13 2.51.39.74.26 1.35.62 1.86 1.07.5.46.89 1 1.15 1.63.26.63.4 1.31.4 2.06 0 .65-.09 1.23-.29 1.72-.2.5-.47.94-.82 1.33-.35.4-.78.75-1.28 1.07-.49.32-1.05.63-1.65.93.74.35 1.42.73 2.03 1.13.61.4 1.14.84 1.57 1.31.44.47.78.98 1.02 1.53s.36 1.15.36 1.81c0 .96-.17 1.81-.51 2.56-.34.75-.82 1.39-1.45 1.91s-1.38.92-2.27 1.19c-.89.27-1.88.41-2.97.41-1.12 0-2.1-.15-2.95-.44-.85-.29-1.56-.7-2.13-1.22-.57-.51-1-1.12-1.29-1.81-.29-.7-.43-1.44-.43-2.24zm6.955 4.207c.65 0 1.24-.1 1.77-.3.53-.198.98-.47 1.36-.82.37-.35.66-.768.87-1.254.2-.484.31-1.014.31-1.588 0-.505-.1-.972-.28-1.405-.19-.432-.49-.85-.91-1.252-.42-.402-.97-.797-1.64-1.18-.67-.383-1.49-.785-2.45-1.202-.95.505-1.7 1.16-2.26 1.966-.56.808-.84 1.773-.84 2.9 0 .62.08 1.184.25 1.687.17.5.42.93.76 1.3.34.36.76.64 1.27.84.5.2 1.09.3 1.75.3zm3.45-15.408c0-.46-.07-.9-.19-1.33-.13-.44-.32-.82-.59-1.16-.27-.35-.62-.62-1.06-.83-.44-.21-.97-.31-1.6-.31-.56 0-1.05.09-1.49.26-.43.17-.8.42-1.09.73-.29.31-.52.68-.67 1.11-.15.43-.23.9-.23 1.41 0 .53.08 1.01.25 1.43.17.42.43.81.76 1.15.34.35.76.67 1.27.98.5.3 1.09.6 1.75.91.57-.28 1.03-.57 1.4-.86.36-.3.65-.62.87-.97.21-.36.36-.74.45-1.16.09-.42.13-.89.13-1.41z" fill="#0069b4"/></svg>